<svg width="23" height="21" viewBox="0 0 23 21" fill="none" xmlns="http://www.w3.org/2000/svg">
<path d="M0.25 3C0.25 1.63281 1.34375 0.5 2.75 0.5H10.25C11.6172 0.5 12.75 1.63281 12.75 3V13.625C12.75 13.9766 12.4375 14.25 12.125 14.25C11.7734 14.25 11.5 13.9766 11.5 13.625V3C11.5 2.33594 10.9141 1.75 10.25 1.75H2.75C2.04688 1.75 1.5 2.33594 1.5 3V10.5H5.875C6.1875 10.5 6.5 10.8125 6.5 11.125C6.5 11.4766 6.1875 11.75 5.875 11.75H1.5V14.25H5.875C6.1875 14.25 6.5 14.5625 6.5 14.875C6.5 15.2266 6.1875 15.5 5.875 15.5H1.5V18C1.5 18.7031 2.04688 19.25 2.75 19.25H9.625C9.9375 19.25 10.25 19.5625 10.25 19.875C10.25 20.2266 9.9375 20.5 9.625 20.5H2.75C1.34375 20.5 0.25 19.4062 0.25 18V3ZM5.875 3.625C5.875 3.3125 6.14844 3 6.5 3C6.8125 3 7.125 3.3125 7.125 3.625V4.875H8.375C8.6875 4.875 9 5.1875 9 5.5C9 5.85156 8.6875 6.125 8.375 6.125H7.125V7.375C7.125 7.72656 6.8125 8 6.5 8C6.14844 8 5.875 7.72656 5.875 7.375V6.125H4.625C4.27344 6.125 4 5.85156 4 5.5C4 5.1875 4.27344 4.875 4.625 4.875H5.875V3.625ZM20.25 11.125C20.25 12.8828 18.8438 14.25 17.125 14.25C15.3672 14.25 14 12.8828 14 11.125C14 9.40625 15.3672 8 17.125 8C18.8438 8 20.25 9.40625 20.25 11.125ZM17.125 9.25C16.0703 9.25 15.25 10.1094 15.25 11.125C15.25 12.1797 16.0703 13 17.125 13C18.1406 13 19 12.1797 19 11.125C19 10.1094 18.1406 9.25 17.125 9.25ZM19.0781 15.5C21.1094 15.5 22.75 17.1406 22.75 19.1719C22.75 19.9141 22.125 20.5 21.3828 20.5H12.8281C12.0859 20.5 11.5 19.9141 11.5 19.1719C11.5 17.1406 13.1016 15.5 15.1328 15.5H19.0781ZM12.8281 19.25H21.3828C21.4219 19.25 21.5 19.2109 21.5 19.1719C21.5 17.8438 20.4062 16.75 19.0781 16.75H15.1328C13.8047 16.75 12.75 17.8438 12.75 19.1719C12.75 19.2109 12.7891 19.25 12.8281 19.25Z" fill="#7F8B6D"/>
</svg>
