<svg width="44" height="44" viewBox="0 0 44 44" fill="none" xmlns="http://www.w3.org/2000/svg">
<path d="M30.1094 16.9062C30.6719 17.4688 31 18.2188 31 19.0156V32C31 33.6875 29.6406 35 28 35H16C14.3125 35 13 33.6875 13 32V14C13 12.3594 14.3125 11 16 11H22.9844C23.7812 11 24.5312 11.3281 25.0938 11.8906L30.1094 16.9062ZM23.5 12.6406V17.75C23.5 18.1719 23.8281 18.5 24.25 18.5H29.3594C29.3125 18.3125 29.2188 18.125 29.0312 17.9375L24.0625 12.9688C23.875 12.7812 23.6875 12.6875 23.5 12.6406ZM29.5 32V20H24.25C22.9844 20 22 19.0156 22 17.75V12.5H16C15.1562 12.5 14.5 13.2031 14.5 14V32C14.5 32.8438 15.1562 33.5 16 33.5H28C28.7969 33.5 29.5 32.8438 29.5 32ZM21.4375 21.7344C21.7188 21.4531 22.2344 21.4531 22.5156 21.7344L26.2656 25.4844C26.5469 25.7656 26.5469 26.2812 26.2656 26.5625C26.125 26.7031 25.9375 26.75 25.75 26.75C25.5156 26.75 25.3281 26.7031 25.1875 26.5625L22.75 24.0781V29.75C22.75 30.1719 22.375 30.5 22 30.5C21.5781 30.5 21.25 30.1719 21.25 29.75V24.0781L18.7656 26.5625C18.4844 26.8438 17.9688 26.8438 17.6875 26.5625C17.4062 26.2812 17.4062 25.7656 17.6875 25.4844L21.4375 21.7344Z" fill="#5D829A"/>
</svg>
