<svg width="44" height="44" viewBox="0 0 44 44" fill="none" xmlns="http://www.w3.org/2000/svg">
<path d="M22 10.75C28.0586 10.75 33 15.6914 33 21.75C33 27.8516 28.0586 32.75 22 32.75C15.8984 32.75 11 27.8516 11 21.75C11 15.6914 15.8984 10.75 22 10.75ZM22 31.375C27.2852 31.375 31.625 27.0781 31.625 21.75C31.625 16.4648 27.2852 12.125 22 12.125C16.6719 12.125 12.375 16.4648 12.375 21.75C12.375 27.0781 16.6719 31.375 22 31.375ZM21.3125 25.5312C21.8711 25.5312 22.3438 26.0039 22.3438 26.5625C22.3438 27.1641 21.8711 27.5938 21.3125 27.5938C20.7109 27.5938 20.2812 27.1641 20.2812 26.5625C20.2812 26.0039 20.7109 25.5312 21.3125 25.5312ZM23.2461 16.25C24.8359 16.25 26.125 17.5391 26.125 19.1289C26.125 20.1602 25.5234 21.1055 24.6211 21.6211L22.043 22.9102C22 22.9531 22 22.9961 22 23.0391V23.8125C22 24.1992 21.6562 24.5 21.3125 24.5C20.9258 24.5 20.625 24.1992 20.625 23.8125V23.0391C20.625 22.4805 20.9258 21.9648 21.3984 21.707L23.9766 20.418C24.4492 20.1602 24.75 19.6445 24.75 19.1289C24.75 18.3125 24.0625 17.625 23.2461 17.625H20.7109C19.8945 17.625 19.25 18.3125 19.25 19.1289V19.5156C19.25 19.9023 18.9062 20.2031 18.5625 20.2031C18.1758 20.2031 17.875 19.9023 17.875 19.5156V19.1289C17.875 17.5391 19.1211 16.25 20.7109 16.25H23.2461Z" fill="#5D829A"/>
</svg>
