<svg width="22" height="23" viewBox="0 0 22 23" fill="none" xmlns="http://www.w3.org/2000/svg">
<path d="M0 11.75C0 5.69141 4.89844 0.75 11 0.75C17.0586 0.75 22 5.69141 22 11.75C22 17.8516 17.0586 22.75 11 22.75C4.89844 22.75 0 17.8516 0 11.75ZM7.04688 14.7578C6.78906 14.457 6.35938 14.457 6.05859 14.6719C5.75781 14.9297 5.75781 15.3594 5.97266 15.6602C6.96094 16.7773 8.59375 17.9375 10.957 17.9375C13.3633 17.9375 14.9961 16.7773 15.9844 15.6602C16.1992 15.3594 16.1992 14.9297 15.8984 14.6719C15.5977 14.457 15.168 14.457 14.9102 14.7578C14.1367 15.6602 12.8477 16.5625 10.957 16.5625C9.10938 16.5625 7.82031 15.6602 7.04688 14.7578ZM7.5625 8.3125C6.78906 8.3125 6.1875 8.95703 6.1875 9.6875C6.1875 10.4609 6.78906 11.0625 7.5625 11.0625C8.33594 11.0625 8.9375 10.4609 8.9375 9.6875C8.9375 8.95703 8.33594 8.3125 7.5625 8.3125ZM14.4375 11.0625C15.2109 11.0625 15.8125 10.4609 15.8125 9.6875C15.8125 8.95703 15.2109 8.3125 14.4375 8.3125C13.6641 8.3125 13.0625 8.95703 13.0625 9.6875C13.0625 10.4609 13.6641 11.0625 14.4375 11.0625Z" fill="#7F8B6D"/>
</svg>
