<svg width="44" height="44" viewBox="0 0 44 44" fill="none" xmlns="http://www.w3.org/2000/svg">
<path d="M22 28.25C24.0156 28.25 25.4219 27.2656 26.2656 26.2812C26.5469 25.9531 27.0156 25.9531 27.3438 26.1875C27.6719 26.4688 27.6719 26.9375 27.4375 27.2656C26.3594 28.4844 24.5781 29.75 22 29.75C19.375 29.75 17.5938 28.4844 16.5156 27.2656C16.2812 26.9375 16.2812 26.4688 16.6094 26.1875C16.9375 25.9531 17.4062 25.9531 17.6875 26.2812C18.5312 27.2656 19.9375 28.25 22 28.25ZM19.375 20.75C19.375 21.4062 18.8594 21.875 18.25 21.875C17.6406 21.875 17.125 21.4062 17.125 20.75C17.125 20.1406 17.6406 19.625 18.25 19.625C18.8594 19.625 19.375 20.1406 19.375 20.75ZM24.625 20.75C24.625 20.1406 25.1406 19.625 25.75 19.625C26.3594 19.625 26.875 20.1406 26.875 20.75C26.875 21.4062 26.3594 21.875 25.75 21.875C25.1406 21.875 24.625 21.4062 24.625 20.75ZM34 23C34 29.6562 28.6094 35 22 35C15.3438 35 10 29.6562 10 23C10 16.3906 15.3438 11 22 11C28.6094 11 34 16.3906 34 23ZM22 12.5C16.1875 12.5 11.5 17.2344 11.5 23C11.5 28.8125 16.1875 33.5 22 33.5C27.7656 33.5 32.5 28.8125 32.5 23C32.5 17.2344 27.7656 12.5 22 12.5Z" fill="#5D829A"/>
</svg>
