<svg width="44" height="44" viewBox="0 0 44 44" fill="none" xmlns="http://www.w3.org/2000/svg">
<path d="M31.2344 20H32.125C33.1562 20 34 20.8438 34 21.875V24.125C34 25.2031 33.1562 26 32.125 26H31.2344C30.2969 29 27.9531 31.3438 25 32.2812V33.125C25 34.2031 24.1562 35 23.125 35H20.875C19.7969 35 19 34.2031 19 33.125V32.2812C16 31.3438 13.6562 29 12.7188 26H11.875C10.7969 26 10 25.2031 10 24.125V21.875C10 20.8438 10.7969 20 11.875 20H12.7188C13.6562 17.0469 16 14.7031 19 13.7656V12.875C19 11.8438 19.7969 11 20.875 11H23.125C24.1562 11 25 11.8438 25 12.875V13.7656C27.9531 14.7031 30.2969 17.0469 31.2344 20ZM23.125 12.5H20.875C20.6406 12.5 20.5 12.6875 20.5 12.875V15.125C20.5 15.3594 20.6406 15.5 20.875 15.5H23.125C23.3125 15.5 23.5 15.3594 23.5 15.125V12.875C23.5 12.6875 23.3125 12.5 23.125 12.5ZM24.9531 15.3125C24.8594 16.2969 24.0625 17 23.125 17H20.875C19.8906 17 19.0938 16.2969 19 15.3125C16.8438 16.1562 15.1094 17.8906 14.2656 20.0469C15.25 20.1406 16 20.9375 16 21.875V24.125C16 25.1094 15.25 25.9062 14.2656 26C15.1094 28.1562 16.8438 29.8906 19 30.7344C19.0938 29.75 19.8906 29 20.8281 29H23.125C24.0625 29 24.8594 29.75 24.9531 30.7344C27.1094 29.8906 28.8438 28.1562 29.6875 26C28.7031 25.9062 28 25.1094 28 24.125V21.875C28 20.9375 28.7031 20.1406 29.6875 20.0469C28.8438 17.8906 27.1094 16.1562 24.9531 15.3125ZM30.1094 21.5H29.875C29.6406 21.5 29.5 21.6875 29.5 21.875V24.125C29.5 24.3594 29.6406 24.5 29.875 24.5H32.125C32.3125 24.5 32.5 24.3594 32.5 24.125V21.875C32.5 21.6875 32.3125 21.5 32.125 21.5H31.6094H30.1094ZM23.5 30.875C23.5 30.6875 23.3125 30.5 23.125 30.5H20.875C20.6406 30.5 20.5 30.6875 20.5 30.875V33.125C20.5 33.3594 20.6406 33.5 20.875 33.5H23.125C23.3125 33.5 23.5 33.3594 23.5 33.125V30.875ZM11.875 21.5C11.6406 21.5 11.5 21.6875 11.5 21.875V24.125C11.5 24.3594 11.6406 24.5 11.875 24.5H14.125C14.3125 24.5 14.5 24.3594 14.5 24.125V21.875C14.5 21.6875 14.3125 21.5 14.125 21.5H13.8438H12.3438H11.875Z" fill="#5D829A"/>
</svg>
