<svg width="44" height="44" viewBox="0 0 44 44" fill="none" xmlns="http://www.w3.org/2000/svg">
<path d="M18.5625 30C18.9062 30 19.25 30.3438 19.25 30.6875C19.25 31.0742 18.9062 31.375 18.5625 31.375H14.4375C12.5039 31.375 11 29.8711 11 27.9375V15.5625C11 13.6719 12.5039 12.125 14.4375 12.125H18.5625C18.9062 12.125 19.25 12.4688 19.25 12.8125C19.25 13.1992 18.9062 13.5 18.5625 13.5H14.4375C13.2773 13.5 12.375 14.4453 12.375 15.5625V27.9375C12.375 29.0977 13.2773 30 14.4375 30H18.5625ZM32.5703 20.8047C32.8281 21.0625 33 21.4062 33 21.75C33 22.1367 32.8281 22.4805 32.5703 22.7383L27.0703 28.2383C26.6836 28.625 26.082 28.7539 25.5664 28.5391C25.0508 28.3242 24.75 27.8086 24.75 27.25V24.5H18.5625C17.4023 24.5 16.5 23.5977 16.5 22.4375V21.0625C16.5 19.9453 17.4023 19 18.5625 19H24.75V16.25C24.75 15.7344 25.0508 15.2188 25.5664 15.0039C26.082 14.7891 26.6836 14.918 27.0703 15.3047L32.5703 20.8047ZM26.125 27.25L31.582 21.75L26.082 16.25L26.125 20.375H18.5625C18.1758 20.375 17.875 20.7188 17.875 21.0625V22.4375C17.875 22.8242 18.1758 23.125 18.5625 23.125H26.125V27.25Z" fill="#5D829A"/>
</svg>
