<svg width="44" height="44" viewBox="0 0 44 44" fill="none" xmlns="http://www.w3.org/2000/svg">
<path d="M22 13.5C16.6719 13.5 12.375 16.8945 12.375 21.0625C12.375 22.6953 13.0195 24.2422 14.2656 25.5742C14.6094 26.0039 14.7383 26.5195 14.5234 26.9922C14.0508 28.2383 13.2773 29.3555 12.7617 30C14.6953 29.7852 16.2422 28.9688 17.1875 28.2812C17.5312 28.0234 18.0039 27.9805 18.3906 28.1094C19.5508 28.4531 20.7539 28.625 22 28.625C27.2852 28.625 31.582 25.2305 31.582 21.0625C31.582 16.8945 27.2852 13.5 22 13.5ZM22 12.125C28.0586 12.125 32.957 16.1641 32.957 21.0625C32.957 26.0039 28.0586 30 22 30C20.582 30 19.25 29.7852 18.0039 29.3984C16.7148 30.3008 14.6523 31.375 12.0312 31.375C11.6016 31.375 11.2148 31.1602 11.043 30.7734C10.9141 30.3867 10.957 29.957 11.2578 29.6562C11.3008 29.6562 12.6328 28.1953 13.2344 26.5195C11.8164 25.0156 11 23.125 11 21.0625C11 16.1641 15.8984 12.125 22 12.125Z" fill="#5D829A"/>
</svg>
