<svg width="44" height="44" viewBox="0 0 44 44" fill="none" xmlns="http://www.w3.org/2000/svg">
<path d="M32.125 12.125C33.6289 12.125 34.875 13.3711 34.875 14.875V28.625C34.875 30.1719 33.6289 31.375 32.125 31.375H12.875C11.3281 31.375 10.125 30.1719 10.125 28.625V14.875C10.125 13.3711 11.3281 12.125 12.875 12.125H32.125ZM33.5 28.625V14.875C33.5 14.1445 32.8555 13.5 32.125 13.5H12.875C12.1016 13.5 11.5 14.1445 11.5 14.875V21.75H18.375C18.6328 21.793 18.8477 21.9219 18.9766 22.1367L19.6641 23.5117L21.8555 18.0977C21.9414 17.7969 22.1992 17.668 22.5 17.625C22.8008 17.668 23.0586 17.8398 23.1445 18.0977L24.3477 21.75H28C28.3438 21.75 28.6875 22.0938 28.6875 22.4375C28.6875 22.8242 28.3438 23.125 28 23.125H23.875C23.5742 23.125 23.3164 22.9531 23.1875 22.6953L22.4141 20.332L20.3516 25.4453C20.2656 25.7031 20.0078 25.875 19.75 25.875C19.4492 25.875 19.2344 25.7461 19.1055 25.5312L17.9453 23.125H11.5V28.625C11.5 29.3984 12.1016 30 12.875 30H32.125C32.8555 30 33.5 29.3984 33.5 28.625Z" fill="#5D829A"/>
</svg>
