<svg width="44" height="44" viewBox="0 0 44 44" fill="none" xmlns="http://www.w3.org/2000/svg">
<path d="M14.125 25.7188C14.125 25.3906 14.4121 25.0625 14.7812 25.0625H17.4062C17.7344 25.0625 18.0625 25.3906 18.0625 25.7188C18.0625 26.0879 17.7344 26.375 17.4062 26.375H14.7812C14.4121 26.375 14.125 26.0879 14.125 25.7188ZM19.375 25.7188C19.375 25.3906 19.6621 25.0625 20.0312 25.0625H25.2812C25.6094 25.0625 25.9375 25.3906 25.9375 25.7188C25.9375 26.0879 25.6094 26.375 25.2812 26.375H20.0312C19.6621 26.375 19.375 26.0879 19.375 25.7188ZM10.1875 14.5625C10.1875 13.127 11.3359 11.9375 12.8125 11.9375H31.1875C32.623 11.9375 33.8125 13.127 33.8125 14.5625V27.6875C33.8125 29.1641 32.623 30.3125 31.1875 30.3125H12.8125C11.3359 30.3125 10.1875 29.1641 10.1875 27.6875V14.5625ZM11.5 14.5625V15.875H32.5V14.5625C32.5 13.8652 31.8848 13.25 31.1875 13.25H12.8125C12.0742 13.25 11.5 13.8652 11.5 14.5625ZM11.5 19.8125H32.5V17.1875H11.5V19.8125ZM11.5 21.125V27.6875C11.5 28.4258 12.0742 29 12.8125 29H31.1875C31.8848 29 32.5 28.4258 32.5 27.6875V21.125H11.5Z" fill="#5D829A"/>
</svg>
