<svg width="25" height="21" viewBox="0 0 25 21" fill="none" xmlns="http://www.w3.org/2000/svg">
<path d="M10.7031 12.375C14.4531 12.375 17.5 15.4219 17.5 19.1719C17.5 19.9141 16.875 20.5 16.1328 20.5H1.32812C0.585938 20.5 0 19.9141 0 19.1719C0 15.4219 3.00781 12.375 6.75781 12.375H10.7031ZM16.1328 19.25C16.1719 19.25 16.25 19.2109 16.25 19.1719C16.25 16.125 13.75 13.625 10.7031 13.625H6.75781C3.71094 13.625 1.25 16.125 1.25 19.1719C1.25 19.2109 1.28906 19.25 1.32812 19.25H16.1328ZM8.75 10.5C5.97656 10.5 3.75 8.27344 3.75 5.5C3.75 2.76562 5.97656 0.5 8.75 0.5C11.4844 0.5 13.75 2.76562 13.75 5.5C13.75 8.27344 11.4844 10.5 8.75 10.5ZM8.75 1.75C6.67969 1.75 5 3.46875 5 5.5C5 7.57031 6.67969 9.25 8.75 9.25C10.7812 9.25 12.5 7.57031 12.5 5.5C12.5 3.46875 10.7812 1.75 8.75 1.75ZM14.6484 9.91406C14.375 9.75781 14.2578 9.36719 14.4531 9.09375C14.6094 8.78125 15 8.66406 15.3125 8.85938C15.7812 9.13281 16.2891 9.25 16.875 9.25C18.5938 9.25 20 7.88281 20 6.125C20 4.40625 18.5938 3 16.875 3C16.4844 3 16.1328 3.07812 15.8203 3.19531C15.5078 3.3125 15.1172 3.15625 15 2.80469C14.8828 2.49219 15.0781 2.14062 15.3906 2.02344C15.8594 1.86719 16.3672 1.75 16.875 1.75C19.2578 1.75 21.25 3.74219 21.25 6.125C21.25 8.54688 19.2578 10.5 16.875 10.5C16.0938 10.5 15.3125 10.3047 14.6484 9.91406ZM19.1406 13C22.3828 13 25 15.6172 25 18.8594C25 19.7578 24.2188 20.5 23.3203 20.5H19.375C19.0234 20.5 18.75 20.2266 18.75 19.875C18.75 19.5625 19.0234 19.25 19.375 19.25H23.3203C23.5547 19.25 23.75 19.0938 23.75 18.8594C23.75 16.3203 21.6797 14.25 19.1406 14.25H17.5C17.1484 14.25 16.875 13.9766 16.875 13.625C16.875 13.3125 17.1484 13 17.5 13H19.1406Z" fill="#7F8B6D"/>
</svg>
