<svg width="44" height="44" viewBox="0 0 44 44" fill="none" xmlns="http://www.w3.org/2000/svg">
<path d="M30 12.5C31.6406 12.5 33 13.8594 33 15.5V26.2812C33 27.0781 32.6719 27.8281 32.1094 28.3906L27.8438 32.6562C27.2812 33.2188 26.5312 33.5 25.7344 33.5H15C13.3125 33.5 12 32.1875 12 30.5V15.5C12 13.8594 13.3125 12.5 15 12.5H30ZM27 31.3906L30.8438 27.5H27.75C27.3281 27.5 27 27.875 27 28.25V31.3906ZM31.5 26V15.5C31.5 14.7031 30.7969 14 30 14H15C14.1562 14 13.5 14.7031 13.5 15.5V30.5C13.5 31.3438 14.1562 32 15 32H25.5V28.25C25.5 27.0312 26.4844 26 27.75 26H31.5ZM26.25 20C26.625 20 27 20.375 27 20.75V22.25C27 22.625 26.625 23 26.25 23H24V25.25C24 25.6719 23.625 26 23.25 26H21.75C21.3281 26 21 25.6719 21 25.25V23H18.75C18.3281 23 18 22.6719 18 22.25V20.75C18 20.375 18.3281 20 18.75 20H21V17.75C21 17.375 21.3281 17 21.75 17H23.25C23.625 17 24 17.375 24 17.75V20H26.25Z" fill="#5D829A"/>
</svg>
