<svg width="21" height="22" viewBox="0 0 21 22" fill="none" xmlns="http://www.w3.org/2000/svg">
<path d="M18 0.5C19.6406 0.5 21 1.85938 21 3.5V14.2812C21 15.0781 20.6719 15.8281 20.1094 16.3906L15.8438 20.6562C15.2812 21.2188 14.5312 21.5 13.7344 21.5H3C1.3125 21.5 0 20.1875 0 18.5V3.5C0 1.85938 1.3125 0.5 3 0.5H18ZM15 19.3906L18.8438 15.5H15.75C15.3281 15.5 15 15.875 15 16.25V19.3906ZM19.5 14V3.5C19.5 2.70312 18.7969 2 18 2H3C2.15625 2 1.5 2.70312 1.5 3.5V18.5C1.5 19.3438 2.15625 20 3 20H13.5V16.25C13.5 15.0312 14.4844 14 15.75 14H19.5ZM14.25 8C14.625 8 15 8.375 15 8.75V10.25C15 10.625 14.625 11 14.25 11H12V13.25C12 13.6719 11.625 14 11.25 14H9.75C9.32812 14 9 13.6719 9 13.25V11H6.75C6.32812 11 6 10.6719 6 10.25V8.75C6 8.375 6.32812 8 6.75 8H9V5.75C9 5.375 9.32812 5 9.75 5H11.25C11.625 5 12 5.375 12 5.75V8H14.25Z" fill="#5D829A"/>
</svg>
