<svg width="44" height="44" viewBox="0 0 44 44" fill="none" xmlns="http://www.w3.org/2000/svg">
<path d="M22 27.5C19.9375 27.5 18.5312 28.5312 17.6875 29.5156C17.4062 29.8438 16.9375 29.8438 16.6094 29.6094C16.2812 29.3281 16.2812 28.8594 16.5156 28.5312C17.5938 27.3125 19.375 26 21.9531 26C24.5781 26 26.3594 27.3125 27.4375 28.5312C27.6719 28.8594 27.6719 29.3281 27.3438 29.6094C27.0156 29.8438 26.5469 29.8438 26.2656 29.5156C25.4219 28.5312 24.0156 27.5 21.9531 27.5H22ZM19.375 20.75C19.375 21.4062 18.8594 21.875 18.25 21.875C17.6406 21.875 17.125 21.4062 17.125 20.75C17.125 20.1406 17.6406 19.625 18.25 19.625C18.8594 19.625 19.375 20.1406 19.375 20.75ZM24.625 20.75C24.625 20.1406 25.1406 19.625 25.75 19.625C26.3594 19.625 26.875 20.1406 26.875 20.75C26.875 21.4062 26.3594 21.875 25.75 21.875C25.1406 21.875 24.625 21.4062 24.625 20.75ZM34 23C34 29.6562 28.6094 35 22 35C15.3438 35 10 29.6562 10 23C10 16.3906 15.3438 11 22 11C28.6094 11 34 16.3906 34 23ZM22 12.5C16.1875 12.5 11.5 17.2344 11.5 23C11.5 28.8125 16.1875 33.5 22 33.5C27.7656 33.5 32.5 28.8125 32.5 23C32.5 17.2344 27.7656 12.5 22 12.5Z" fill="#5D829A"/>
</svg>
