<svg width="22" height="23" viewBox="0 0 22 23" fill="none" xmlns="http://www.w3.org/2000/svg">
<path d="M11 15.875C9.10938 15.875 7.82031 16.8203 7.04688 17.7227C6.78906 18.0234 6.35938 18.0234 6.05859 17.8086C5.75781 17.5508 5.75781 17.1211 5.97266 16.8203C6.96094 15.7031 8.59375 14.5 10.957 14.5C13.3633 14.5 14.9961 15.7031 15.9844 16.8203C16.1992 17.1211 16.1992 17.5508 15.8984 17.8086C15.5977 18.0234 15.168 18.0234 14.9102 17.7227C14.1367 16.8203 12.8477 15.875 10.957 15.875H11ZM8.59375 9.6875C8.59375 10.2891 8.12109 10.7188 7.5625 10.7188C7.00391 10.7188 6.53125 10.2891 6.53125 9.6875C6.53125 9.12891 7.00391 8.65625 7.5625 8.65625C8.12109 8.65625 8.59375 9.12891 8.59375 9.6875ZM13.4062 9.6875C13.4062 9.12891 13.8789 8.65625 14.4375 8.65625C14.9961 8.65625 15.4688 9.12891 15.4688 9.6875C15.4688 10.2891 14.9961 10.7188 14.4375 10.7188C13.8789 10.7188 13.4062 10.2891 13.4062 9.6875ZM22 11.75C22 17.8516 17.0586 22.75 11 22.75C4.89844 22.75 0 17.8516 0 11.75C0 5.69141 4.89844 0.75 11 0.75C17.0586 0.75 22 5.69141 22 11.75ZM11 2.125C5.67188 2.125 1.375 6.46484 1.375 11.75C1.375 17.0781 5.67188 21.375 11 21.375C16.2852 21.375 20.625 17.0781 20.625 11.75C20.625 6.46484 16.2852 2.125 11 2.125Z" fill="#7F8B6D"/>
</svg>
