<svg width="44" height="44" viewBox="0 0 44 44" fill="none" xmlns="http://www.w3.org/2000/svg">
<path d="M14.7812 10.625C15.1094 10.625 15.4375 10.9531 15.4375 11.2812V13.25H23.3125V11.2812C23.3125 10.9531 23.5996 10.625 23.9688 10.625C24.2969 10.625 24.625 10.9531 24.625 11.2812V13.25H25.9375C27.373 13.25 28.5625 14.4395 28.5625 15.875V18.541C28.3164 18.541 28.1113 18.5 27.9062 18.5C27.6602 18.5 27.4551 18.541 27.25 18.541V18.5H11.5V29C11.5 29.7383 12.0742 30.3125 12.8125 30.3125H22.3281C22.7383 30.8457 23.1895 31.2559 23.7227 31.625H12.8125C11.3359 31.625 10.1875 30.4766 10.1875 29V15.875C10.1875 14.4395 11.3359 13.25 12.8125 13.25H14.125V11.2812C14.125 10.9531 14.4121 10.625 14.7812 10.625ZM25.9375 14.5625H12.8125C12.0742 14.5625 11.5 15.1777 11.5 15.875V17.1875H27.25V15.875C27.25 15.1777 26.6348 14.5625 25.9375 14.5625ZM27.8652 22.4375C28.2344 22.4375 28.5215 22.7656 28.5215 23.0938V25.0625H29.875C30.2031 25.0625 30.5312 25.3906 30.5312 25.7188C30.5312 26.0879 30.2031 26.375 29.875 26.375H27.8652C27.5371 26.375 27.209 26.0879 27.209 25.7188V23.0938C27.209 22.7656 27.5371 22.4375 27.8652 22.4375ZM22 25.7188C22 22.4785 24.625 19.8125 27.9062 19.8125C31.1465 19.8125 33.8125 22.4785 33.8125 25.7188C33.8125 29 31.1465 31.625 27.9062 31.625C24.625 31.625 22 29 22 25.7188ZM27.9062 30.3125C30.4082 30.3125 32.5 28.2617 32.5 25.7188C32.5 23.2168 30.4082 21.125 27.9062 21.125C25.3633 21.125 23.3125 23.2168 23.3125 25.7188C23.3125 28.2617 25.3633 30.3125 27.9062 30.3125Z" fill="#5D829A"/>
</svg>
