<svg width="44" height="44" viewBox="0 0 44 44" fill="none" xmlns="http://www.w3.org/2000/svg">
<path d="M33.7656 14.9844C34.0469 15.2656 34.0469 15.7812 33.7656 16.0625C33.625 16.2031 33.4375 16.25 33.25 16.25C33.0156 16.25 32.8281 16.2031 32.6875 16.0625L31.375 14.7031L29.0312 17L32.2656 20.2344C32.5469 20.5156 32.5469 21.0312 32.2656 21.3125C32.125 21.4531 31.9375 21.5 31.75 21.5C31.5156 21.5 31.3281 21.4531 31.1875 21.3125L23.6875 13.8125C23.4062 13.5312 23.4062 13.0156 23.6875 12.7344C23.9688 12.4531 24.4844 12.4531 24.7656 12.7344L28 15.9688L30.2969 13.625L28.9375 12.3125C28.6562 12.0312 28.6562 11.5156 28.9375 11.2344C29.2188 10.9531 29.7344 10.9531 30.0156 11.2344L33.7656 14.9844ZM28.1875 21.7344C28.4688 21.4531 28.9844 21.4531 29.2656 21.7344C29.5469 22.0156 29.5469 22.5312 29.2656 22.8125L20.4062 31.6719C19.6562 32.375 18.7188 32.75 17.7344 32.75H13.2812L11.2656 34.8125C11.125 34.9531 10.9375 35 10.75 35C10.5156 35 10.3281 34.9531 10.1875 34.8125C9.90625 34.5312 9.90625 34.0156 10.1875 33.7344L12.25 31.7188V27.2656C12.25 26.2812 12.625 25.3438 13.3281 24.5938L22.1875 15.7344C22.4688 15.4531 22.9844 15.4531 23.2656 15.7344C23.5469 16.0156 23.5469 16.5312 23.2656 16.8125L20.0312 20L22.5156 22.4844C22.7969 22.7656 22.7969 23.2812 22.5156 23.5625C22.375 23.7031 22.1875 23.75 22 23.75C21.7656 23.75 21.5781 23.7031 21.4375 23.5625L19 21.0781L17.0312 23L19.5156 25.4844C19.7969 25.7656 19.7969 26.2812 19.5156 26.5625C19.375 26.7031 19.1875 26.75 19 26.75C18.7656 26.75 18.5781 26.7031 18.4375 26.5625L16 24.0781L14.4062 25.6719C13.9844 26.0938 13.75 26.6562 13.75 27.2656V31.25H17.7344C18.3438 31.25 18.9062 31.0156 19.3281 30.5938L28.1875 21.7344Z" fill="#5D829A"/>
</svg>
